<?xml version="1.0" encoding="UTF-8"?>
<svg width="600px" height="600px" viewBox="0 0 600 600" version="1.1" xmlns="http://www.w3.org/2000/svg">
    <title>Leaves Pattern</title>
    <g stroke="none" fill="none">
        <g fill="#3a7d44" fill-opacity="0.1">
            <!-- Leaf 1 -->
            <path d="M50,100 C80,70 130,120 100,150 C130,180 80,230 50,200 C20,230 -30,180 0,150 C-30,120 20,70 50,100 Z"></path>
            
            <!-- Leaf 2 -->
            <path d="M250,200 C280,170 330,220 300,250 C330,280 280,330 250,300 C220,330 170,280 200,250 C170,220 220,170 250,200 Z"></path>
            
            <!-- Leaf 3 -->
            <path d="M150,350 C180,320 230,370 200,400 C230,430 180,480 150,450 C120,480 70,430 100,400 C70,370 120,320 150,350 Z"></path>
            
            <!-- Leaf 4 -->
            <path d="M350,50 C380,20 430,70 400,100 C430,130 380,180 350,150 C320,180 270,130 300,100 C270,70 320,20 350,50 Z"></path>
            
            <!-- Leaf 5 -->
            <path d="M450,300 C480,270 530,320 500,350 C530,380 480,430 450,400 C420,430 370,380 400,350 C370,320 420,270 450,300 Z"></path>
            
            <!-- Small leaf 1 -->
            <path d="M100,450 C115,435 140,460 125,475 C140,490 115,515 100,500 C85,515 60,490 75,475 C60,460 85,435 100,450 Z"></path>
            
            <!-- Small leaf 2 -->
            <path d="M400,150 C415,135 440,160 425,175 C440,190 415,215 400,200 C385,215 360,190 375,175 C360,160 385,135 400,150 Z"></path>
            
            <!-- Small leaf 3 -->
            <path d="M300,500 C315,485 340,510 325,525 C340,540 315,565 300,550 C285,565 260,540 275,525 C260,510 285,485 300,500 Z"></path>
        </g>
    </g>
</svg>