<?xml version="1.0" encoding="UTF-8"?>
<svg width="600" height="600" viewBox="0 0 600 600" xmlns="http://www.w3.org/2000/svg">
  <g fill="#3a7d44" fill-opacity="0.1">
    <!-- Large Leaf 1 -->
    <path d="M50,100 C80,70 110,70 120,100 C130,130 100,140 70,130 C40,120 20,130 50,100 Z"/>
    
    <!-- Small Leaf 2 -->
    <path d="M150,50 C165,35 180,35 185,50 C190,65 175,70 160,65 C145,60 135,65 150,50 Z"/>
    
    <!-- Medium Leaf 3 -->
    <path d="M250,120 C270,100 290,100 295,120 C300,140 280,145 260,140 C240,135 230,140 250,120 Z"/>
    
    <!-- Large Leaf 4 -->
    <path d="M350,80 C380,50 410,50 420,80 C430,110 400,120 370,110 C340,100 320,110 350,80 Z"/>
    
    <!-- Small Leaf 5 -->
    <path d="M450,40 C465,25 480,25 485,40 C490,55 475,60 460,55 C445,50 435,55 450,40 Z"/>
    
    <!-- Medium Leaf 6 -->
    <path d="M100,200 C120,180 140,180 145,200 C150,220 130,225 110,220 C90,215 80,220 100,200 Z"/>
    
    <!-- Large Leaf 7 -->
    <path d="M200,250 C230,220 260,220 270,250 C280,280 250,290 220,280 C190,270 170,280 200,250 Z"/>
    
    <!-- Small Leaf 8 -->
    <path d="M300,200 C315,185 330,185 335,200 C340,215 325,220 310,215 C295,210 285,215 300,200 Z"/>
    
    <!-- Medium Leaf 9 -->
    <path d="M400,220 C420,200 440,200 445,220 C450,240 430,245 410,240 C390,235 380,240 400,220 Z"/>
    
    <!-- Large Leaf 10 -->
    <path d="M500,180 C530,150 560,150 570,180 C580,210 550,220 520,210 C490,200 470,210 500,180 Z"/>
    
    <!-- Small Leaf 11 -->
    <path d="M50,350 C65,335 80,335 85,350 C90,365 75,370 60,365 C45,360 35,365 50,350 Z"/>
    
    <!-- Medium Leaf 12 -->
    <path d="M150,300 C170,280 190,280 195,300 C200,320 180,325 160,320 C140,315 130,320 150,300 Z"/>
    
    <!-- Large Leaf 13 -->
    <path d="M250,380 C280,350 310,350 320,380 C330,410 300,420 270,410 C240,400 220,410 250,380 Z"/>
    
    <!-- Small Leaf 14 -->
    <path d="M350,320 C365,305 380,305 385,320 C390,335 375,340 360,335 C345,330 335,335 350,320 Z"/>
    
    <!-- Medium Leaf 15 -->
    <path d="M450,350 C470,330 490,330 495,350 C500,370 480,375 460,370 C440,365 430,370 450,350 Z"/>
    
    <!-- Large Leaf 16 -->
    <path d="M100,450 C130,420 160,420 170,450 C180,480 150,490 120,480 C90,470 70,480 100,450 Z"/>
    
    <!-- Small Leaf 17 -->
    <path d="M200,400 C215,385 230,385 235,400 C240,415 225,420 210,415 C195,410 185,415 200,400 Z"/>
    
    <!-- Medium Leaf 18 -->
    <path d="M300,450 C320,430 340,430 345,450 C350,470 330,475 310,470 C290,465 280,470 300,450 Z"/>
    
    <!-- Large Leaf 19 -->
    <path d="M400,500 C430,470 460,470 470,500 C480,530 450,540 420,530 C390,520 370,530 400,500 Z"/>
    
    <!-- Small Leaf 20 -->
    <path d="M500,450 C515,435 530,435 535,450 C540,465 525,470 510,465 C495,460 485,465 500,450 Z"/>
  </g>
</svg>