<?xml version="1.0" encoding="UTF-8"?>
<svg width="600px" height="600px" viewBox="0 0 600 600" version="1.1" xmlns="http://www.w3.org/2000/svg">
    <title>Snowflakes Pattern</title>
    <g stroke="none" fill="none">
        <g fill="#6eb5ff" fill-opacity="0.15">
            <!-- Snowflake 1 -->
            <path d="M50,50 L50,70 M40,60 L60,60 M43,53 L57,67 M43,67 L57,53"></path>
            
            <!-- Snowflake 2 -->
            <path d="M150,100 L150,130 M135,115 L165,115 M140,105 L160,125 M140,125 L160,105"></path>
            
            <!-- Snowflake 3 -->
            <path d="M250,50 L250,70 M240,60 L260,60 M243,53 L257,67 M243,67 L257,53"></path>
            
            <!-- Snowflake 4 -->
            <path d="M350,100 L350,130 M335,115 L365,115 M340,105 L360,125 M340,125 L360,105"></path>
            
            <!-- Snowflake 5 -->
            <path d="M450,50 L450,70 M440,60 L460,60 M443,53 L457,67 M443,67 L457,53"></path>
            
            <!-- Snowflake 6 -->
            <path d="M550,100 L550,130 M535,115 L565,115 M540,105 L560,125 M540,125 L560,105"></path>
            
            <!-- Snowflake 7 -->
            <path d="M50,200 L50,230 M35,215 L65,215 M40,205 L60,225 M40,225 L60,205"></path>
            
            <!-- Snowflake 8 -->
            <path d="M150,250 L150,270 M140,260 L160,260 M143,253 L157,267 M143,267 L157,253"></path>
            
            <!-- Snowflake 9 -->
            <path d="M250,200 L250,230 M235,215 L265,215 M240,205 L260,225 M240,225 L260,205"></path>
            
            <!-- Snowflake 10 -->
            <path d="M350,250 L350,270 M340,260 L360,260 M343,253 L357,267 M343,267 L357,253"></path>
            
            <!-- Snowflake 11 -->
            <path d="M450,200 L450,230 M435,215 L465,215 M440,205 L460,225 M440,225 L460,205"></path>
            
            <!-- Snowflake 12 -->
            <path d="M550,250 L550,270 M540,260 L560,260 M543,253 L557,267 M543,267 L557,253"></path>
            
            <!-- Snowflake 13 -->
            <path d="M50,350 L50,370 M40,360 L60,360 M43,353 L57,367 M43,367 L57,353"></path>
            
            <!-- Snowflake 14 -->
            <path d="M150,300 L150,330 M135,315 L165,315 M140,305 L160,325 M140,325 L160,305"></path>
            
            <!-- Snowflake 15 -->
            <path d="M250,350 L250,370 M240,360 L260,360 M243,353 L257,367 M243,367 L257,353"></path>
            
            <!-- Snowflake 16 -->
            <path d="M350,300 L350,330 M335,315 L365,315 M340,305 L360,325 M340,325 L360,305"></path>
            
            <!-- Snowflake 17 -->
            <path d="M450,350 L450,370 M440,360 L460,360 M443,353 L457,367 M443,367 L457,353"></path>
            
            <!-- Snowflake 18 -->
            <path d="M550,300 L550,330 M535,315 L565,315 M540,305 L560,325 M540,325 L560,305"></path>
            
            <!-- Snowflake 19 -->
            <path d="M50,450 L50,480 M35,465 L65,465 M40,455 L60,475 M40,475 L60,455"></path>
            
            <!-- Snowflake 20 -->
            <path d="M150,400 L150,420 M140,410 L160,410 M143,403 L157,417 M143,417 L157,403"></path>
            
            <!-- Snowflake 21 -->
            <path d="M250,450 L250,480 M235,465 L265,465 M240,455 L260,475 M240,475 L260,455"></path>
            
            <!-- Snowflake 22 -->
            <path d="M350,400 L350,420 M340,410 L360,410 M343,403 L357,417 M343,417 L357,403"></path>
            
            <!-- Snowflake 23 -->
            <path d="M450,450 L450,480 M435,465 L465,465 M440,455 L460,475 M440,475 L460,455"></path>
            
            <!-- Snowflake 24 -->
            <path d="M550,400 L550,420 M540,410 L560,410 M543,403 L557,417 M543,417 L557,403"></path>
            
            <!-- Snowflake 25 -->
            <path d="M50,550 L50,570 M40,560 L60,560 M43,553 L57,567 M43,567 L57,553"></path>
            
            <!-- Snowflake 26 -->
            <path d="M150,500 L150,530 M135,515 L165,515 M140,505 L160,525 M140,525 L160,505"></path>
            
            <!-- Snowflake 27 -->
            <path d="M250,550 L250,570 M240,560 L260,560 M243,553 L257,567 M243,567 L257,553"></path>
            
            <!-- Snowflake 28 -->
            <path d="M350,500 L350,530 M335,515 L365,515 M340,505 L360,525 M340,525 L360,505"></path>
            
            <!-- Snowflake 29 -->
            <path d="M450,550 L450,570 M440,560 L460,560 M443,553 L457,567 M443,567 L457,553"></path>
            
            <!-- Snowflake 30 -->
            <path d="M550,500 L550,530 M535,515 L565,515 M540,505 L560,525 M540,525 L560,505"></path>
        </g>
    </g>
</svg>