<?xml version="1.0" encoding="UTF-8"?>
<svg width="1440" height="320" viewBox="0 0 1440 320" xmlns="http://www.w3.org/2000/svg">
  <path fill="#e8f4ea" fill-opacity="0.5" d="M0,256L48,240C96,224,192,192,288,192C384,192,480,224,576,234.7C672,245,768,235,864,208C960,181,1056,139,1152,138.7C1248,139,1344,181,1392,202.7L1440,224L1440,320L1392,320C1344,320,1248,320,1152,320C1056,320,960,320,864,320C768,320,672,320,576,320C480,320,384,320,288,320C192,320,96,320,48,320L0,320Z"></path>
  <path fill="#d0e8d4" fill-opacity="0.5" d="M0,64L48,85.3C96,107,192,149,288,154.7C384,160,480,128,576,112C672,96,768,96,864,117.3C960,139,1056,181,1152,186.7C1248,192,1344,160,1392,144L1440,128L1440,320L1392,320C1344,320,1248,320,1152,320C1056,320,960,320,864,320C768,320,672,320,576,320C480,320,384,320,288,320C192,320,96,320,48,320L0,320Z"></path>
  <path fill="#3a7d44" fill-opacity="0.3" d="M0,160L48,165.3C96,171,192,181,288,186.7C384,192,480,192,576,170.7C672,149,768,107,864,96C960,85,1056,107,1152,133.3C1248,160,1344,192,1392,208L1440,224L1440,320L1392,320C1344,320,1248,320,1152,320C1056,320,960,320,864,320C768,320,672,320,576,320C480,320,384,320,288,320C192,320,96,320,48,320L0,320Z"></path>
</svg>